<?xml version="1.0" encoding="UTF-8"?>
<svg xmlns="http://www.w3.org/2000/svg" xmlns:xlink="http://www.w3.org/1999/xlink" width="114px" height="25px" viewBox="0 0 115 25" version="1.1">
<g id="surface1">
<path style=" stroke:none;fill-rule:nonzero;fill:rgb(0%,0%,0%);fill-opacity:1;" d="M 0.105469 4.308594 L 3.851562 4.308594 L 8.722656 17.640625 L 8.773438 17.640625 L 13.667969 4.308594 L 17.289062 4.308594 L 17.289062 20.707031 L 14.765625 20.707031 L 14.765625 6.542969 L 14.714844 6.542969 L 9.5625 20.707031 L 7.421875 20.707031 L 2.269531 6.542969 L 2.21875 6.542969 L 2.21875 20.707031 L 0.101562 20.707031 M 19.183594 15.050781 C 19.183594 11.222656 20.96875 9.132812 24.535156 9.132812 C 28.105469 9.132812 29.917969 11.222656 29.917969 15.050781 C 29.917969 18.875 28.105469 20.964844 24.535156 20.964844 C 20.96875 20.964844 19.183594 18.875 19.183594 15.050781 Z M 24.539062 19.96875 C 26.832031 19.96875 27.113281 17.117188 27.113281 15.050781 C 27.113281 12.980469 26.832031 10.128906 24.539062 10.128906 C 22.269531 10.128906 21.988281 12.980469 21.988281 15.050781 C 21.988281 17.117188 22.269531 19.96875 24.539062 19.96875 Z M 31.914062 9.394531 L 34.488281 9.394531 L 34.488281 12.078125 L 34.539062 12.078125 C 34.945312 11.25 36.121094 9.132812 38.796875 9.132812 C 40.9375 9.132812 41.855469 10.796875 41.855469 12.433594 L 41.855469 20.707031 L 39.28125 20.707031 L 39.28125 13.625 C 39.28125 12.199219 39.050781 10.914062 37.75 10.914062 C 35.203125 10.914062 34.488281 14.621094 34.488281 16.023438 L 34.488281 20.707031 L 31.914062 20.707031 Z M 51.09375 20.800781 C 50.585938 20.917969 49.894531 20.964844 49.308594 20.964844 C 46.886719 20.964844 45.484375 20.277344 45.484375 18.089844 L 45.484375 10.628906 L 43.546875 10.628906 L 43.546875 9.394531 L 45.484375 9.394531 L 45.484375 6.734375 L 48.058594 5.285156 L 48.058594 9.394531 L 51.375 9.394531 L 51.375 10.628906 L 48.058594 10.628906 L 48.058594 17.140625 C 48.058594 18.804688 48.238281 19.609375 49.894531 19.609375 C 50.304688 19.609375 50.738281 19.5625 51.09375 19.421875 Z M 53.03125 9.394531 L 55.609375 9.394531 L 55.609375 12.269531 L 55.660156 12.269531 C 56.472656 10.75 57.367188 9.300781 59.585938 9.132812 L 59.585938 11.628906 C 57.113281 11.699219 55.609375 12.484375 55.609375 15.523438 L 55.609375 20.703125 L 53.03125 20.703125 Z M 66.546875 20.964844 C 63.179688 20.964844 60.476562 19.113281 60.476562 14.550781 C 60.476562 11.414062 61.828125 9.132812 65.652344 9.132812 C 69.582031 9.132812 70.320312 11.582031 70.320312 13.765625 L 63.050781 13.765625 C 63.050781 16 64.125 19.707031 67.769531 19.707031 C 68.558594 19.707031 69.324219 19.5625 70.089844 19.230469 L 70.089844 20.324219 C 69.019531 20.730469 68.074219 20.964844 66.546875 20.964844 Z M 67.796875 12.671875 C 67.796875 11.796875 67.464844 10.128906 65.550781 10.128906 C 63.5625 10.128906 63.179688 12.03125 63.128906 12.671875 Z M 65.949219 4.320312 L 68.652344 4.320312 L 66.164062 7.421875 L 64.25 7.421875 Z M 78.53125 19.136719 L 78.476562 19.136719 C 78.070312 19.800781 77 20.964844 75.0625 20.964844 C 73.148438 20.964844 71.746094 19.707031 71.746094 18.136719 C 71.746094 14.644531 76.921875 14.480469 78.53125 14.40625 L 78.53125 13.410156 C 78.53125 12.175781 78.53125 10.128906 76.820312 10.128906 C 75.242188 10.128906 74.960938 11.269531 74.859375 12.601562 L 72.15625 12.601562 C 72.285156 10.914062 72.996094 9.132812 76.820312 9.132812 C 80.773438 9.132812 81.105469 11.199219 81.105469 13.410156 L 81.105469 20.707031 L 78.53125 20.707031 Z M 78.53125 15.40625 C 77.457031 15.476562 74.550781 15.691406 74.550781 17.78125 C 74.550781 18.804688 75.1875 19.46875 76.03125 19.46875 C 76.921875 19.46875 78.53125 18.660156 78.53125 16.734375 Z M 83.769531 4.308594 L 86.34375 4.308594 L 86.34375 20.707031 L 83.769531 20.707031 "/>
<path style=" stroke:none;fill-rule:nonzero;fill:rgb(89.019608%,19.215686%,19.215686%);fill-opacity:1;" d="M 102.746094 2.105469 C 101.960938 0.921875 100.667969 0.191406 99.355469 0.191406 C 97.101562 0.191406 95.335938 1.992188 95.335938 4.292969 C 95.335938 4.511719 95.382812 4.820312 95.46875 5.207031 C 95.257812 5.164062 94.871094 5.089844 94.550781 5.089844 C 92.269531 5.089844 90.476562 6.855469 90.476562 9.113281 C 90.476562 10.445312 91.214844 11.742188 92.398438 12.539062 C 91.203125 13.34375 90.484375 14.597656 90.484375 15.914062 C 90.484375 18.148438 92.316406 19.960938 94.5625 19.960938 C 94.839844 19.960938 95.171875 19.898438 95.460938 19.832031 C 95.378906 20.203125 95.335938 20.511719 95.335938 20.738281 C 95.335938 23.035156 97.101562 24.839844 99.355469 24.839844 C 100.691406 24.839844 101.9375 24.136719 102.71875 22.964844 C 103.46875 24.085938 104.820312 24.839844 106.113281 24.839844 C 108.359375 24.839844 110.113281 23.039062 110.113281 20.738281 C 110.113281 20.4375 110.050781 20.078125 109.996094 19.832031 C 110.382812 19.914062 110.6875 19.960938 110.90625 19.960938 C 113.152344 19.960938 114.980469 18.144531 114.980469 15.914062 C 114.980469 14.585938 114.269531 13.292969 113.121094 12.511719 C 114.269531 11.734375 114.980469 10.445312 114.980469 9.113281 C 114.980469 6.894531 113.144531 5.085938 110.886719 5.085938 C 110.605469 5.085938 110.261719 5.15625 109.996094 5.214844 C 110.039062 5.007812 110.113281 4.609375 110.113281 4.292969 C 110.113281 1.992188 108.359375 0.191406 106.113281 0.191406 C 104.804688 0.191406 103.53125 0.921875 102.746094 2.105469 Z M 97.457031 6.210938 C 97.261719 6.023438 96.625 5.335938 96.625 4.246094 L 96.625 4.238281 C 96.625 2.554688 98.035156 1.507812 99.339844 1.503906 C 100.070312 1.503906 100.75 1.785156 101.269531 2.304688 C 101.785156 2.820312 102.066406 3.511719 102.066406 4.25 L 102.066406 10.605469 C 102.066406 11.394531 101.375 11.828125 100.882812 11.828125 L 94.539062 11.828125 C 93.820312 11.828125 93.113281 11.535156 92.597656 11.019531 C 92.242188 10.664062 91.820312 10.039062 91.816406 9.097656 C 91.816406 8.371094 92.109375 7.664062 92.621094 7.148438 C 93.121094 6.640625 93.796875 6.359375 94.515625 6.359375 C 95.472656 6.355469 96.117188 6.808594 96.488281 7.183594 C 96.488281 7.183594 96.726562 7.425781 96.808594 7.5 C 96.753906 7.644531 96.699219 7.828125 96.699219 8.082031 C 96.699219 8.996094 97.445312 9.738281 98.359375 9.742188 C 98.800781 9.746094 99.195312 9.582031 99.503906 9.277344 C 99.8125 8.964844 100 8.515625 100 8.078125 C 100 7.65625 99.808594 7.199219 99.5 6.886719 C 99.195312 6.582031 98.796875 6.421875 98.347656 6.421875 C 98.101562 6.421875 97.894531 6.496094 97.785156 6.53125 C 97.726562 6.476562 97.457031 6.210938 97.457031 6.210938 Z M 103.40625 4.242188 C 103.40625 3.523438 103.6875 2.808594 104.203125 2.289062 C 104.558594 1.929688 105.179688 1.503906 106.113281 1.503906 C 106.832031 1.5 107.539062 1.796875 108.050781 2.308594 C 108.554688 2.816406 108.832031 3.496094 108.835938 4.21875 L 108.835938 4.222656 C 108.835938 5.1875 108.390625 5.832031 108.015625 6.203125 C 108.015625 6.207031 107.777344 6.445312 107.699219 6.523438 C 107.558594 6.472656 107.375 6.417969 107.121094 6.417969 C 106.214844 6.417969 105.476562 7.167969 105.476562 8.089844 C 105.472656 8.535156 105.632812 8.929688 105.933594 9.238281 C 106.246094 9.550781 106.6875 9.738281 107.125 9.738281 L 107.128906 9.738281 C 107.550781 9.738281 108 9.546875 108.308594 9.234375 C 108.613281 8.929688 108.769531 8.53125 108.769531 8.078125 C 108.769531 7.828125 108.699219 7.617188 108.664062 7.511719 C 108.71875 7.453125 108.980469 7.179688 108.980469 7.179688 C 109.167969 6.984375 109.851562 6.34375 110.933594 6.339844 C 112.613281 6.339844 113.65625 7.757812 113.65625 9.074219 C 113.65625 9.808594 113.375 10.496094 112.859375 11.015625 C 112.347656 11.535156 111.660156 11.828125 110.929688 11.828125 L 104.613281 11.828125 C 103.832031 11.828125 103.40625 11.121094 103.40625 10.625 Z M 92.613281 17.890625 C 92.097656 17.375 91.800781 16.664062 91.796875 15.945312 C 91.796875 15.214844 92.078125 14.523438 92.59375 14.003906 C 93.105469 13.484375 93.792969 13.1875 94.527344 13.1875 L 100.84375 13.1875 C 101.625 13.1875 102.066406 13.902344 102.066406 14.394531 L 102.066406 20.777344 C 102.066406 21.5 101.765625 22.210938 101.25 22.734375 C 100.898438 23.089844 100.277344 23.515625 99.34375 23.515625 C 97.84375 23.519531 96.621094 22.300781 96.621094 20.800781 L 96.621094 20.796875 C 96.621094 19.835938 97.066406 19.191406 97.441406 18.816406 C 97.441406 18.816406 97.679688 18.574219 97.757812 18.492188 C 97.898438 18.546875 98.082031 18.601562 98.335938 18.601562 C 99.242188 18.601562 99.976562 17.851562 99.984375 16.929688 C 99.984375 16.488281 99.824219 16.09375 99.523438 15.785156 C 99.210938 15.46875 98.769531 15.28125 98.332031 15.28125 C 97.910156 15.28125 97.457031 15.472656 97.144531 15.785156 C 96.84375 16.089844 96.683594 16.488281 96.683594 16.941406 L 96.683594 16.945312 C 96.683594 17.191406 96.753906 17.402344 96.792969 17.507812 L 96.472656 17.839844 C 96.292969 18.035156 95.601562 18.679688 94.523438 18.679688 C 93.796875 18.679688 93.121094 18.398438 92.613281 17.890625 Z M 104.226562 22.707031 C 103.710938 22.191406 103.40625 21.5 103.40625 20.761719 L 103.40625 14.40625 C 103.40625 13.617188 104.125 13.1875 104.617188 13.1875 L 110.953125 13.1875 C 112.265625 13.183594 113.679688 14.222656 113.679688 15.914062 C 113.679688 17.421875 112.46875 18.652344 110.980469 18.652344 C 110.019531 18.65625 109.378906 18.207031 109.007812 17.828125 C 109.007812 17.828125 108.769531 17.589844 108.691406 17.507812 C 108.742188 17.367188 108.796875 17.183594 108.796875 16.925781 C 108.796875 16.015625 108.050781 15.273438 107.136719 15.269531 C 106.695312 15.269531 106.300781 15.429688 105.996094 15.734375 C 105.6875 16.042969 105.5 16.492188 105.496094 16.933594 C 105.496094 17.355469 105.691406 17.8125 106 18.125 C 106.300781 18.429688 106.699219 18.589844 107.148438 18.589844 C 107.398438 18.589844 107.605469 18.519531 107.710938 18.480469 L 108.039062 18.800781 C 108.234375 18.984375 108.871094 19.675781 108.875 20.765625 L 108.875 20.769531 C 108.875 22.457031 107.460938 23.503906 106.152344 23.507812 C 105.429688 23.511719 104.742188 23.222656 104.226562 22.707031 Z M 104.226562 22.707031 "/>
</g>
</svg>
